RobotoFlex-opsz144-wght400-wdth25-YOPQ135.ufo
<glyph name="numbersign" format="2">
  <advance width="486"/>
  <unicode hex="0023"/>
  <outline>
    <contour>
      <point x="57.0" y="-10.0" type="line"/>
      <point x="174.0" y="1466.0" type="line"/>
      <point x="260.0" y="1465.0" type="line"/>
      <point x="143.0" y="-11.0" type="line"/>
    </contour>
    <contour>
      <point x="225.0" y="-10.0" type="line"/>
      <point x="343.0" y="1466.0" type="line"/>
      <point x="427.0" y="1466.0" type="line"/>
      <point x="311.0" y="-10.0" type="line"/>
    </contour>
    <contour>
      <point x="15.0" y="421.32142857142856" type="line"/>
      <point x="15.0" y="537.3214285714286" type="line"/>
      <point x="454.0" y="537.3214285714286" type="line"/>
      <point x="454.0" y="421.32142857142856" type="line"/>
    </contour>
    <contour>
      <point x="38.696428571428584" y="909.9821428571429" type="line"/>
      <point x="38.696428571428584" y="1025.982142857143" type="line"/>
      <point x="477.69642857142867" y="1025.982142857143" type="line"/>
      <point x="477.69642857142867" y="909.9821428571429" type="line"/>
    </contour>
  </outline>
</glyph>
<glyph name="parenleft" format="2">
  <advance width="277"/>
  <unicode hex="0028"/>
  <outline>
    <contour>
      <point x="216.0" y="-396.0" type="line"/>
      <point x="140.0" y="-332.64285714285717"/>
      <point x="48.0" y="8.0"/>
      <point x="48.0" y="425.0" type="qcurve" smooth="yes"/>
      <point x="48.0" y="621.0" type="line" smooth="yes"/>
      <point x="48.0" y="1022.4464285714286"/>
      <point x="142.0" y="1421.642857142857"/>
      <point x="216.0" y="1476.0" type="qcurve"/>
      <point x="267.0" y="1398.2142857142858" type="line"/>
      <point x="219.0" y="1352.1706293397244"/>
      <point x="140.0" y="980.6607142857143"/>
      <point x="140.0" y="588.0" type="qcurve" smooth="yes"/>
      <point x="140.0" y="439.0" type="line" smooth="yes"/>
      <point x="140.0" y="108.58928571428571"/>
      <point x="204.0" y="-244.17062933972437"/>
      <point x="269.0" y="-321.2142857142857" type="qcurve"/>
    </contour>
  </outline>
</glyph>
<glyph name="hyphen" format="2">
  <advance width="375"/>
  <unicode hex="002D"/>
  <outline>
    <contour>
      <point x="44.64285714285714" y="539.0" type="line"/>
      <point x="44.64285714285714" y="644.0" type="line"/>
      <point x="330.64285714285717" y="644.0" type="line"/>
      <point x="330.64285714285717" y="539.0" type="line"/>
    </contour>
  </outline>
</glyph>
<glyph name="one" format="2">
  <advance width="352"/>
  <unicode hex="0031"/>
  <outline>
    <contour>
      <point x="161.0" y="0.0" type="line"/>
      <point x="161.0" y="1304.1964285714287" type="line"/>
      <point x="21.0" y="1209.2142857142858" type="line"/>
      <point x="21.0" y="1349.0" type="line"/>
      <point x="180.0" y="1456.0" type="line"/>
      <point x="259.0" y="1456.0" type="line"/>
      <point x="259.0" y="0.0" type="line"/>
    </contour>
  </outline>
</glyph>
<glyph name="two" format="2">
  <advance width="352"/>
  <unicode hex="0032"/>
  <outline>
    <contour>
      <point x="22.0" y="0.0" type="line"/>
      <point x="22.0" y="121.5" type="line"/>
      <point x="149.0" y="685.7142857142857" type="line" smooth="yes"/>
      <point x="174.0" y="795.6785714285714"/>
      <point x="225.0" y="1038.625"/>
      <point x="225.0" y="1175.9285714285713" type="qcurve" smooth="yes"/>
      <point x="225.0" y="1265.232142857143"/>
      <point x="207.0" y="1337.3214285714287"/>
      <point x="172.0" y="1337.3214285714287" type="qcurve" smooth="yes"/>
      <point x="142.0" y="1337.3214285714287"/>
      <point x="125.0" y="1289.107142857143"/>
      <point x="125.0" y="1174.2857142857142" type="qcurve" smooth="yes"/>
      <point x="125.0" y="964.2857142857142" type="line"/>
      <point x="34.0" y="964.2857142857142" type="line"/>
      <point x="34.0" y="1204.2857142857142" type="line" smooth="yes"/>
      <point x="33.0" y="1369.107142857143"/>
      <point x="111.0" y="1466.0"/>
      <point x="177.0" y="1466.0" type="qcurve" smooth="yes"/>
      <point x="249.0" y="1466.0"/>
      <point x="321.0" y="1348.2857142857142"/>
      <point x="321.0" y="1185.9285714285713" type="qcurve" smooth="yes"/>
      <point x="321.0" y="1007.7857142857142"/>
      <point x="268.0" y="777.9464285714286"/>
      <point x="239.0" y="652.9821428571429" type="qcurve" smooth="yes"/>
      <point x="115.85714285714286" y="131.89285714285714" type="line"/>
      <point x="340.0" y="131.89285714285714" type="line"/>
      <point x="340.0" y="0.0" type="line"/>
    </contour>
  </outline>
</glyph>
<glyph name="three" format="2">
  <advance width="352"/>
  <unicode hex="0033"/>
  <outline>
    <contour>
      <point x="22.0" y="213.71428571428572" type="qcurve" smooth="yes"/>
      <point x="22.0" y="465.7142857142857" type="line"/>
      <point x="118.0" y="465.7142857142857" type="line"/>
      <point x="118.0" y="222.71428571428572" type="line" smooth="yes"/>
      <point x="118.0" y="154.0187969924812"/>
      <point x="139.0" y="116.0"/>
      <point x="169.0" y="116.0" type="qcurve" smooth="yes"/>
      <point x="203.0" y="116.0"/>
      <point x="222.0" y="183.86466165413535"/>
      <point x="222.0" y="405.7142857142857" type="qcurve" smooth="yes"/>
      <point x="222.0" y="628.0676691729324"/>
      <point x="174.0" y="716.3928571428571"/>
      <point x="123.0" y="716.3928571428571" type="qcurve" smooth="yes"/>
      <point x="75.0" y="716.3928571428571" type="line"/>
      <point x="75.0" y="843.4642857142857" type="line"/>
      <point x="108.0" y="843.4642857142857" type="line" smooth="yes"/>
      <point x="175.0" y="841.4642857142857"/>
      <point x="223.0" y="950.6041666666666"/>
      <point x="223.0" y="1097.9642857142858" type="qcurve" smooth="yes"/>
      <point x="223.0" y="1285.0004892367906"/>
      <point x="202.0" y="1340.0"/>
      <point x="173.0" y="1340.0" type="qcurve" smooth="yes"/>
      <point x="144.0" y="1340.0"/>
      <point x="132.0" y="1297.959122203098"/>
      <point x="132.0" y="1234.2857142857142" type="qcurve" smooth="yes"/>
      <point x="132.0" y="994.2857142857142" type="line"/>
      <point x="38.0" y="994.2857142857142" type="line"/>
      <point x="38.0" y="1254.2857142857142" type="line" smooth="yes"/>
      <point x="38.0" y="1360.8392857142858"/>
      <point x="102.0" y="1466.0"/>
      <point x="172.0" y="1466.0" type="qcurve" smooth="yes"/>
      <point x="250.0" y="1466.0"/>
      <point x="319.0" y="1340.0535714285713"/>
      <point x="319.0" y="1106.642857142857" type="qcurve" smooth="yes"/>
      <point x="319.0" y="943.25"/>
      <point x="261.0" y="806.8701672797273"/>
      <point x="209.0" y="788.0" type="qcurve"/>
      <point x="209.0" y="784.0" type="line"/>
      <point x="269.0" y="768.1686805655108"/>
      <point x="318.0" y="613.0493297025555"/>
      <point x="318.0" y="400.0892857142857" type="qcurve" smooth="yes"/>
      <point x="318.0" y="156.8032942667089"/>
      <point x="255.0" y="-10.0"/>
      <point x="168.0" y="-10.0" type="qcurve" smooth="yes"/>
      <point x="98.0" y="-10.0"/>
      <point x="22.0" y="91.89285714285714"/>
    </contour>
  </outline>
</glyph>
<glyph name="seven" format="2">
  <advance width="352"/>
  <unicode hex="0037"/>
  <outline>
    <contour>
      <point x="48.53571428571428" y="0.0" type="line"/>
      <point x="171.75" y="1360.267857142857" type="line"/>
      <point x="31.0" y="1360.267857142857" type="line"/>
      <point x="31.0" y="1456.0" type="line"/>
      <point x="287.0" y="1456.0" type="line"/>
      <point x="287.0" y="1370.392857142857" type="line"/>
      <point x="176.73214285714283" y="0.0" type="line"/>
    </contour>
  </outline>
</glyph>
<glyph name="nine" format="2">
  <advance width="352"/>
  <unicode hex="0039"/>
  <outline>
    <contour>
      <point x="20.0" y="998.3214285714286" type="qcurve" smooth="yes"/>
      <point x="20.0" y="1330.516824085006"/>
      <point x="99.0" y="1466.0"/>
      <point x="168.0" y="1466.0" type="qcurve" smooth="yes"/>
      <point x="248.0" y="1466.0"/>
      <point x="321.0" y="1277.0"/>
      <point x="321.0" y="879.0" type="qcurve" smooth="yes"/>
      <point x="321.0" y="798.0" type="line" smooth="yes"/>
      <point x="321.0" y="311.0"/>
      <point x="240.0" y="63.0"/>
      <point x="117.0" y="2.0" type="qcurve" smooth="yes"/>
      <point x="93.0" y="-10.0" type="line"/>
      <point x="57.0" y="108.67857142857143" type="line"/>
      <point x="82.0" y="122.67857142857143" type="line" smooth="yes"/>
      <point x="179.0" y="172.67857142857144"/>
      <point x="227.0" y="346.9695845697329"/>
      <point x="227.0" y="732.0" type="qcurve" smooth="yes"/>
      <point x="227.0" y="842.0" type="line" smooth="yes"/>
      <point x="227.0" y="1155.6134453781513"/>
      <point x="223.0" y="1345.0"/>
      <point x="171.0" y="1345.0" type="qcurve" smooth="yes"/>
      <point x="119.0" y="1345.0"/>
      <point x="114.0" y="1202.401702269693"/>
      <point x="114.0" y="998.3214285714286" type="qcurve" smooth="yes"/>
      <point x="114.0" y="832.509602425876"/>
      <point x="117.0" y="672.6428571428571"/>
      <point x="167.0" y="672.6428571428571" type="qcurve" smooth="yes"/>
      <point x="213.0" y="672.6428571428571"/>
      <point x="240.0" y="799.509602425876"/>
      <point x="242.0" y="988.3214285714286" type="qcurve"/>
      <point x="296.0" y="988.3214285714286" type="line"/>
      <point x="296.0" y="725.25"/>
      <point x="213.0" y="548.6428571428571"/>
      <point x="150.0" y="548.6428571428571" type="qcurve" smooth="yes"/>
      <point x="89.0" y="548.6428571428571"/>
      <point x="20.0" y="686.121072910492"/>
    </contour>
  </outline>
</glyph>
<glyph name="equal" format="2">
  <advance width="389"/>
  <unicode hex="003D"/>
  <outline>
    <contour>
      <point x="49.71428571428572" y="506.73214285714283" type="line"/>
      <point x="49.71428571428572" y="627.1071428571429" type="line"/>
      <point x="339.3928571428571" y="627.1071428571429" type="line"/>
      <point x="339.3928571428571" y="506.73214285714283" type="line"/>
    </contour>
    <contour>
      <point x="49.71428571428572" y="728.7857142857143" type="line"/>
      <point x="49.71428571428572" y="849.1607142857143" type="line"/>
      <point x="339.3928571428571" y="849.1607142857143" type="line"/>
      <point x="339.3928571428571" y="728.7857142857143" type="line"/>
    </contour>
  </outline>
</glyph>
<glyph name="greater" format="2">
  <advance width="342"/>
  <unicode hex="003E"/>
  <outline>
    <contour>
      <point x="43.821428571428555" y="239.75" type="line"/>
      <point x="43.821428571428555" y="427.48214285714283" type="line"/>
      <point x="227.5" y="675.875" type="line"/>
      <point x="43.821428571428555" y="924.2678571428571" type="line"/>
      <point x="43.821428571428555" y="1109.3214285714287" type="line"/>
      <point x="304.55357142857144" y="705.7321428571429" type="line"/>
      <point x="304.55357142857144" y="641.7321428571429" type="line"/>
    </contour>
  </outline>
</glyph>
<glyph name="H" format="2">
  <advance width="392"/>
  <unicode hex="0048"/>
  <outline>
    <contour>
      <point x="46.0" y="0.0" type="line"/>
      <point x="46.0" y="1456.0" type="line"/>
      <point x="144.0" y="1456.0" type="line"/>
      <point x="144.0" y="818.7321428571429" type="line"/>
      <point x="248.0" y="818.7321428571429" type="line"/>
      <point x="248.0" y="1456.0" type="line"/>
      <point x="346.0" y="1456.0" type="line"/>
      <point x="346.0" y="0.0" type="line"/>
      <point x="248.0" y="0.0" type="line"/>
      <point x="248.0" y="684.7321428571429" type="line"/>
      <point x="144.0" y="684.7321428571429" type="line"/>
      <point x="144.0" y="0.0" type="line"/>
    </contour>
  </outline>
</glyph>
<glyph name="K" format="2">
  <advance width="348"/>
  <unicode hex="004B"/>
  <outline>
    <contour>
      <point x="46.0" y="0.0" type="line"/>
      <point x="46.0" y="1456.0" type="line"/>
      <point x="144.0" y="1456.0" type="line"/>
      <point x="144.0" y="937.8928571428571" type="line"/>
      <point x="217.6428571428571" y="1456.0" type="line"/>
      <point x="347.42857142857144" y="1456.0" type="line"/>
      <point x="144.0" y="534.0892857142857" type="line"/>
      <point x="144.0" y="0.0" type="line"/>
    </contour>
    <contour>
      <point x="254.0" y="0.0" type="line"/>
      <point x="134.0" y="708.0" type="line"/>
      <point x="186.0" y="926.0" type="line"/>
      <point x="362.0" y="0.0" type="line"/>
    </contour>
  </outline>
</glyph>
<glyph name="L" format="2">
  <advance width="290"/>
  <unicode hex="004C"/>
  <outline>
    <contour>
      <point x="46.0" y="0.0" type="line"/>
      <point x="46.0" y="1456.0" type="line"/>
      <point x="146.0" y="1456.0" type="line"/>
      <point x="146.0" y="128.0" type="line"/>
      <point x="290.0" y="128.0" type="line"/>
      <point x="290.0" y="0.0" type="line"/>
    </contour>
  </outline>
</glyph>
<glyph name="Q" format="2">
  <advance width="389"/>
  <unicode hex="0051"/>
  <outline>
    <contour>
      <point x="42.0" y="202.0" type="qcurve" smooth="yes"/>
      <point x="42.0" y="1259.0" type="line" smooth="yes"/>
      <point x="42.0" y="1370.0"/>
      <point x="118.0" y="1466.0"/>
      <point x="193.0" y="1466.0" type="qcurve" smooth="yes"/>
      <point x="267.0" y="1466.0"/>
      <point x="347.0" y="1370.0"/>
      <point x="347.0" y="1259.0" type="qcurve" smooth="yes"/>
      <point x="347.0" y="202.0" type="line" smooth="yes"/>
      <point x="347.0" y="95.0"/>
      <point x="261.0" y="-10.0"/>
      <point x="193.0" y="-10.0" type="qcurve" smooth="yes"/>
      <point x="120.0" y="-10.0"/>
      <point x="42.0" y="94.0"/>
    </contour>
    <contour>
      <point x="142.0" y="225.0" type="line" smooth="yes"/>
      <point x="142.0" y="143.46428571428572"/>
      <point x="169.0" y="117.07142857142857"/>
      <point x="193.0" y="117.07142857142857" type="qcurve" smooth="yes"/>
      <point x="215.0" y="117.07142857142857"/>
      <point x="247.0" y="142.46428571428572"/>
      <point x="247.0" y="225.0" type="qcurve" smooth="yes"/>
      <point x="247.0" y="1236.0" type="line" smooth="yes"/>
      <point x="247.0" y="1306.5357142857142"/>
      <point x="217.0" y="1330.9285714285713"/>
      <point x="193.0" y="1330.9285714285713" type="qcurve" smooth="yes"/>
      <point x="169.0" y="1330.9285714285713"/>
      <point x="142.0" y="1306.5357142857142"/>
      <point x="142.0" y="1236.0" type="qcurve" smooth="yes"/>
    </contour>
    <contour>
      <point x="305.0" y="-113.0" type="line"/>
      <point x="169.0" y="21.0" type="line"/>
      <point x="224.0" y="88.0" type="line"/>
      <point x="364.0" y="-46.0" type="line"/>
    </contour>
  </outline>
</glyph>
<glyph name="S" format="2">
  <advance width="312"/>
  <unicode hex="0053"/>
  <outline>
    <contour>
      <point x="10.0" y="266.39285714285717" type="qcurve" smooth="yes"/>
      <point x="10.0" y="501.39285714285717" type="line"/>
      <point x="106.0" y="501.39285714285717" type="line"/>
      <point x="106.0" y="276.39285714285717" type="line" smooth="yes"/>
      <point x="105.0" y="171.69642857142858"/>
      <point x="124.0" y="115.73214285714286"/>
      <point x="154.0" y="115.73214285714286" type="qcurve" smooth="yes"/>
      <point x="182.0" y="115.73214285714286"/>
      <point x="202.0" y="169.67857142857142"/>
      <point x="202.0" y="331.0357142857143" type="qcurve" smooth="yes"/>
      <point x="202.0" y="482.07142857142856"/>
      <point x="179.94642857142856" y="601.4642857142857"/>
      <point x="131.73214285714283" y="718.0" type="qcurve" smooth="yes"/>
      <point x="85.33928571428572" y="842.1964285714286"/>
      <point x="16.0" y="1023.0"/>
      <point x="16.0" y="1158.5714285714287" type="qcurve" smooth="yes"/>
      <point x="16.0" y="1355.0"/>
      <point x="88.0" y="1467.0"/>
      <point x="155.0" y="1467.0" type="qcurve" smooth="yes"/>
      <point x="222.0" y="1467.0"/>
      <point x="286.0" y="1366.732142857143"/>
      <point x="286.0" y="1244.607142857143" type="qcurve" smooth="yes"/>
      <point x="286.0" y="978.6071428571429" type="line"/>
      <point x="189.0" y="978.6071428571429" type="line"/>
      <point x="189.0" y="1222.607142857143" type="line" smooth="yes"/>
      <point x="189.0" y="1296.107142857143"/>
      <point x="176.0" y="1332.267857142857"/>
      <point x="152.0" y="1332.267857142857" type="qcurve" smooth="yes"/>
      <point x="129.0" y="1332.267857142857"/>
      <point x="116.0" y="1301.25"/>
      <point x="116.0" y="1156.625" type="qcurve" smooth="yes"/>
      <point x="116.0" y="1061.3214285714287"/>
      <point x="158.875" y="918.5357142857143"/>
      <point x="195.26785714285717" y="826.2678571428571" type="qcurve" smooth="yes"/>
      <point x="241.7321428571429" y="711.7321428571429"/>
      <point x="302.0" y="526.5357142857142"/>
      <point x="302.0" y="346.80357142857144" type="qcurve" smooth="yes"/>
      <point x="302.0" y="124.0"/>
      <point x="227.0" y="-10.0"/>
      <point x="157.0" y="-10.0" type="qcurve" smooth="yes"/>
      <point x="87.0" y="-10.0"/>
      <point x="10.0" y="107.96428571428572"/>
    </contour>
  </outline>
</glyph>
<glyph name="V" format="2">
  <advance width="368"/>
  <unicode hex="0056"/>
  <outline>
    <contour>
      <point x="10.0" y="1456.0" type="line"/>
      <point x="110.0" y="1456.0" type="line"/>
      <point x="168.21428571428572" y="493.75" type="line" smooth="yes"/>
      <point x="168.21428571428572" y="491.75"/>
      <point x="171.75" y="422.0892857142857"/>
      <point x="171.75" y="411.0892857142857" type="qcurve"/>
      <point x="171.75" y="411.0892857142857" type="line"/>
      <point x="170.94642857142856" y="423.1607142857143"/>
      <point x="172.07142857142856" y="485.5892857142857"/>
      <point x="171.80357142857144" y="487.5892857142857" type="qcurve" smooth="yes"/>
      <point x="231.53571428571433" y="1456.0" type="line"/>
      <point x="358.0" y="1456.0" type="line"/>
      <point x="232.0" y="-9.0" type="line"/>
      <point x="140.0" y="-9.0" type="line"/>
    </contour>
  </outline>
</glyph>
<glyph name="bracketleft" format="2">
  <advance width="245"/>
  <unicode hex="005B"/>
  <outline>
    <contour>
      <point x="44.0" y="-310.0" type="line"/>
      <point x="44.0" y="1456.0" type="line"/>
      <point x="237.0" y="1456.0" type="line"/>
      <point x="237.0" y="1347.2142857142858" type="line"/>
      <point x="145.0" y="1347.2142857142858" type="line"/>
      <point x="145.0" y="-201.21428571428572" type="line"/>
      <point x="237.0" y="-201.21428571428572" type="line"/>
      <point x="237.0" y="-310.0" type="line"/>
    </contour>
  </outline>
</glyph>
<glyph name="bracketright" format="2">
  <advance width="245"/>
  <unicode hex="005D"/>
  <outline>
    <contour>
      <point x="200.60714285714283" y="-310.0" type="line"/>
      <point x="7.607142857142861" y="-310.0" type="line"/>
      <point x="7.607142857142861" y="-201.21428571428572" type="line"/>
      <point x="99.60714285714283" y="-201.21428571428572" type="line"/>
      <point x="99.60714285714283" y="1347.2142857142858" type="line"/>
      <point x="7.607142857142861" y="1347.2142857142858" type="line"/>
      <point x="7.607142857142861" y="1456.0" type="line"/>
      <point x="200.60714285714283" y="1456.0" type="line"/>
    </contour>
  </outline>
</glyph>
<glyph name="b" format="2">
  <advance width="359"/>
  <unicode hex="0062"/>
  <outline>
    <contour>
      <point x="40.0" y="0.0" type="line"/>
      <point x="40.0" y="1456.0" type="line"/>
      <point x="131.0" y="1456.0" type="line"/>
      <point x="131.0" y="854.0" type="line"/>
      <point x="135.0" y="876.8035714285714"/>
      <point x="179.0" y="923.0"/>
      <point x="217.0" y="923.0" type="qcurve" smooth="yes"/>
      <point x="269.0" y="923.0"/>
      <point x="323.0" y="844.0"/>
      <point x="323.0" y="756.0" type="qcurve" smooth="yes"/>
      <point x="323.0" y="163.0" type="line" smooth="yes"/>
      <point x="323.0" y="86.0"/>
      <point x="272.0" y="-8.0"/>
      <point x="220.0" y="-8.0" type="qcurve" smooth="yes"/>
      <point x="190.0" y="-8.0"/>
      <point x="144.0" y="16.464285714285715"/>
      <point x="131.0" y="41.0" type="qcurve"/>
      <point x="131.0" y="41.0" type="line"/>
      <point x="131.0" y="0.0" type="line"/>
    </contour>
    <contour>
      <point x="131.0" y="158.60714285714286" type="line"/>
      <point x="137.0" y="136.60714285714286"/>
      <point x="159.0" y="115.60714285714286"/>
      <point x="179.0" y="115.60714285714286" type="qcurve" smooth="yes"/>
      <point x="200.0" y="115.60714285714286"/>
      <point x="231.0" y="134.39285714285717"/>
      <point x="231.0" y="172.0" type="qcurve" smooth="yes"/>
      <point x="231.0" y="732.0" type="line" smooth="yes"/>
      <point x="231.0" y="781.6071428571429"/>
      <point x="206.0" y="797.3928571428571"/>
      <point x="183.0" y="797.3928571428571" type="qcurve" smooth="yes"/>
      <point x="165.0" y="797.3928571428571"/>
      <point x="136.0" y="773.3928571428571"/>
      <point x="131.0" y="743.3928571428571" type="qcurve"/>
    </contour>
  </outline>
</glyph>
<glyph name="g" format="2">
  <advance width="359"/>
  <unicode hex="0067"/>
  <outline>
    <contour>
      <point x="7.0" y="-375.0" type="qcurve"/>
      <point x="36.0" y="-262.2142857142857" type="line"/>
      <point x="53.0" y="-273.4821428571429"/>
      <point x="99.0" y="-297.75"/>
      <point x="131.0" y="-297.75" type="qcurve" smooth="yes"/>
      <point x="176.0" y="-297.75"/>
      <point x="228.0" y="-196.16071428571428"/>
      <point x="228.0" y="-79.57142857142857" type="qcurve" smooth="yes"/>
      <point x="228.0" y="41.0" type="line"/>
      <point x="215.0" y="16.19642857142857"/>
      <point x="169.0" y="-8.0"/>
      <point x="139.0" y="-8.0" type="qcurve" smooth="yes"/>
      <point x="87.0" y="-8.0"/>
      <point x="36.0" y="86.0"/>
      <point x="36.0" y="163.0" type="qcurve" smooth="yes"/>
      <point x="36.0" y="756.0" type="line" smooth="yes"/>
      <point x="36.0" y="844.0"/>
      <point x="90.0" y="923.0"/>
      <point x="142.0" y="923.0" type="qcurve" smooth="yes"/>
      <point x="180.0" y="923.0"/>
      <point x="224.0" y="876.5357142857143"/>
      <point x="228.0" y="854.0" type="qcurve"/>
      <point x="228.0" y="854.0" type="line"/>
      <point x="228.0" y="914.0" type="line"/>
      <point x="319.0" y="914.0" type="line"/>
      <point x="319.0" y="-105.57142857142857" type="line" smooth="yes"/>
      <point x="319.0" y="-261.0178571428571"/>
      <point x="220.0" y="-416.0"/>
      <point x="130.0" y="-416.0" type="qcurve" smooth="yes"/>
      <point x="83.0" y="-416.0"/>
      <point x="23.0" y="-388.4642857142857"/>
    </contour>
    <contour>
      <point x="128.0" y="172.0" type="line" smooth="yes"/>
      <point x="128.0" y="134.39285714285717"/>
      <point x="160.0" y="115.60714285714286"/>
      <point x="180.0" y="115.60714285714286" type="qcurve" smooth="yes"/>
      <point x="203.0" y="115.60714285714286"/>
      <point x="223.0" y="136.60714285714286"/>
      <point x="228.0" y="158.60714285714283" type="qcurve"/>
      <point x="228.0" y="743.3928571428571" type="line"/>
      <point x="223.0" y="773.3928571428571"/>
      <point x="193.0" y="797.3928571428571"/>
      <point x="176.0" y="797.3928571428571" type="qcurve" smooth="yes"/>
      <point x="155.0" y="797.3928571428571"/>
      <point x="128.0" y="781.6071428571429"/>
      <point x="128.0" y="732.0" type="qcurve" smooth="yes"/>
    </contour>
  </outline>
</glyph>
<glyph name="h" format="2">
  <advance width="360"/>
  <unicode hex="0068"/>
  <outline>
    <contour>
      <point x="40.0" y="0.0" type="line"/>
      <point x="40.0" y="1456.0" type="line"/>
      <point x="131.0" y="1456.0" type="line"/>
      <point x="131.0" y="862.6607142857143" type="line"/>
      <point x="145.0" y="895.5357142857143"/>
      <point x="194.32142857142856" y="924.0"/>
      <point x="224.78571428571428" y="924.0" type="qcurve" smooth="yes"/>
      <point x="271.0" y="924.0"/>
      <point x="322.0" y="844.0714285714286"/>
      <point x="322.0" y="753.4642857142857" type="qcurve" smooth="yes"/>
      <point x="322.0" y="0.0" type="line"/>
      <point x="231.0" y="0.0" type="line"/>
      <point x="231.0" y="719.4642857142857" type="line" smooth="yes"/>
      <point x="231.0" y="774.4642857142857"/>
      <point x="205.0" y="802.4642857142857"/>
      <point x="185.0" y="802.4642857142857" type="qcurve" smooth="yes"/>
      <point x="164.0" y="802.4642857142857"/>
      <point x="136.0" y="778.4642857142857"/>
      <point x="131.0" y="754.4642857142857" type="qcurve"/>
      <point x="131.0" y="0.0" type="line"/>
    </contour>
  </outline>
</glyph>
<glyph name="j" format="2">
  <advance width="186"/>
  <unicode hex="006A"/>
  <outline>
    <contour>
      <point x="-85.0" y="-399.0" type="qcurve"/>
      <point x="-66.0" y="-286.14285714285717" type="line"/>
      <point x="-58.0" y="-289.14285714285717"/>
      <point x="-33.0" y="-295.14285714285717"/>
      <point x="-14.0" y="-295.14285714285717" type="qcurve" smooth="yes"/>
      <point x="8.0" y="-295.14285714285717"/>
      <point x="45.0" y="-257.1428571428571"/>
      <point x="45.0" y="-182.14285714285714" type="qcurve" smooth="yes"/>
      <point x="45.0" y="914.0" type="line"/>
      <point x="137.0" y="914.0" type="line"/>
      <point x="137.0" y="-193.0" type="line" smooth="yes"/>
      <point x="137.0" y="-310.0"/>
      <point x="65.0" y="-417.0"/>
      <point x="1.0" y="-417.0" type="qcurve" smooth="yes"/>
      <point x="-31.0" y="-417.0"/>
      <point x="-73.0" y="-405.2619026737999"/>
    </contour>
    <contour>
      <point x="26.60714285714286" y="1223.25" type="qcurve" smooth="yes"/>
      <point x="26.60714285714286" y="1260.75"/>
      <point x="58.803571428571416" y="1310.6607142857142"/>
      <point x="91.0" y="1310.6607142857142" type="qcurve" smooth="yes"/>
      <point x="124.19642857142858" y="1310.6607142857142"/>
      <point x="155.39285714285714" y="1261.75"/>
      <point x="155.39285714285714" y="1223.25" type="qcurve" smooth="yes"/>
      <point x="155.39285714285714" y="1185.75"/>
      <point x="123.19642857142858" y="1133.8392857142858"/>
      <point x="90.0" y="1133.8392857142858" type="qcurve" smooth="yes"/>
      <point x="57.803571428571416" y="1133.8392857142858"/>
      <point x="26.60714285714286" y="1185.75"/>
    </contour>
  </outline>
</glyph>
<glyph name="k" format="2">
  <advance width="328"/>
  <unicode hex="006B"/>
  <outline>
    <contour>
      <point x="40.0" y="0.0" type="line"/>
      <point x="40.0" y="1456.0" type="line"/>
      <point x="132.0" y="1456.0" type="line"/>
      <point x="132.0" y="643.5714285714286" type="line"/>
      <point x="186.8571428571429" y="914.0" type="line"/>
      <point x="314.0" y="914.0" type="line"/>
      <point x="132.0" y="340.4107142857143" type="line"/>
      <point x="132.0" y="0.0" type="line"/>
    </contour>
    <contour>
      <point x="227.57142857142856" y="0.0" type="line"/>
      <point x="136.76785714285717" y="533.5357142857143" type="line"/>
      <point x="195.92857142857144" y="665.8214285714286" type="line"/>
      <point x="328.0" y="0.0" type="line"/>
    </contour>
  </outline>
</glyph>
<glyph name="p" format="2">
  <advance width="360"/>
  <unicode hex="0070"/>
  <outline>
    <contour>
      <point x="41.0" y="-416.0" type="line"/>
      <point x="41.0" y="914.0" type="line"/>
      <point x="128.0" y="914.0" type="line"/>
      <point x="128.0" y="854.0" type="line"/>
      <point x="129.0" y="854.0" type="line"/>
      <point x="135.0" y="879.5357142857143"/>
      <point x="180.0" y="923.0"/>
      <point x="218.0" y="923.0" type="qcurve" smooth="yes"/>
      <point x="270.0" y="923.0"/>
      <point x="324.0" y="844.0"/>
      <point x="324.0" y="756.0" type="qcurve" smooth="yes"/>
      <point x="324.0" y="163.0" type="line" smooth="yes"/>
      <point x="324.0" y="86.0"/>
      <point x="272.0" y="-8.0"/>
      <point x="221.0" y="-8.0" type="qcurve" smooth="yes"/>
      <point x="191.0" y="-8.0"/>
      <point x="145.0" y="16.19642857142857"/>
      <point x="132.0" y="41.0" type="qcurve"/>
      <point x="132.0" y="-416.0" type="line"/>
    </contour>
    <contour>
      <point x="132.0" y="158.60714285714286" type="line"/>
      <point x="137.0" y="136.60714285714286"/>
      <point x="159.0" y="115.60714285714286"/>
      <point x="180.0" y="115.60714285714286" type="qcurve" smooth="yes"/>
      <point x="201.0" y="115.60714285714286"/>
      <point x="232.0" y="134.39285714285717"/>
      <point x="232.0" y="172.0" type="qcurve" smooth="yes"/>
      <point x="232.0" y="732.0" type="line" smooth="yes"/>
      <point x="232.0" y="781.6071428571429"/>
      <point x="207.0" y="797.3928571428571"/>
      <point x="183.0" y="797.3928571428571" type="qcurve" smooth="yes"/>
      <point x="166.0" y="797.3928571428571"/>
      <point x="137.0" y="773.3928571428571"/>
      <point x="132.0" y="743.3928571428571" type="qcurve"/>
    </contour>
  </outline>
</glyph>
<glyph name="r" format="2">
  <advance width="264"/>
  <unicode hex="0072"/>
  <outline>
    <contour>
      <point x="40.0" y="0.0" type="line"/>
      <point x="40.0" y="914.0" type="line"/>
      <point x="126.0" y="914.0" type="line"/>
      <point x="126.0" y="854.0" type="line"/>
      <point x="127.0" y="854.0" type="line"/>
      <point x="138.0" y="892.0"/>
      <point x="180.0" y="924.0"/>
      <point x="210.0" y="924.0" type="qcurve" smooth="yes"/>
      <point x="225.0" y="924.0"/>
      <point x="256.0" y="919.0"/>
      <point x="264.0" y="915.0" type="qcurve"/>
      <point x="262.0" y="781.9642857142857" type="line"/>
      <point x="252.0" y="784.9642857142857"/>
      <point x="230.0" y="788.9642857142857"/>
      <point x="212.0" y="788.9642857142857" type="qcurve" smooth="yes"/>
      <point x="186.0" y="788.9642857142857"/>
      <point x="144.0" y="743.9642857142857"/>
      <point x="131.0" y="694.9642857142857" type="qcurve"/>
      <point x="131.0" y="0.0" type="line"/>
    </contour>
  </outline>
</glyph>
<glyph name="s" format="2">
  <advance width="294"/>
  <unicode hex="0073"/>
  <outline>
    <contour>
      <point x="18.0" y="295.0357142857143" type="line"/>
      <point x="108.0" y="295.0357142857143" type="line"/>
      <point x="108.0" y="189.03571428571428" type="line" smooth="yes"/>
      <point x="108.0" y="129.80357142857142"/>
      <point x="131.0" y="104.57142857142857"/>
      <point x="146.0" y="104.57142857142857" type="qcurve" smooth="yes"/>
      <point x="162.0" y="104.57142857142857"/>
      <point x="183.19642857142856" y="121.39285714285714"/>
      <point x="183.19642857142856" y="235.03571428571428" type="qcurve" smooth="yes"/>
      <point x="183.19642857142856" y="310.67857142857144"/>
      <point x="145.0" y="378.625"/>
      <point x="110.0" y="425.26785714285717" type="qcurve" smooth="yes"/>
      <point x="70.0" y="478.9107142857143"/>
      <point x="25.48214285714286" y="590.2857142857143"/>
      <point x="25.48214285714286" y="695.2857142857143" type="qcurve" smooth="yes"/>
      <point x="25.48214285714286" y="824.8392857142857"/>
      <point x="95.67857142857144" y="923.0"/>
      <point x="148.67857142857144" y="923.0" type="qcurve" smooth="yes"/>
      <point x="208.67857142857144" y="923.0"/>
      <point x="274.67857142857144" y="837.5"/>
      <point x="274.67857142857144" y="754.625" type="qcurve" smooth="yes"/>
      <point x="274.67857142857144" y="632.625" type="line"/>
      <point x="184.67857142857144" y="632.625" type="line"/>
      <point x="184.67857142857144" y="737.5535714285714" type="line" smooth="yes"/>
      <point x="185.67857142857144" y="786.6607142857143"/>
      <point x="165.67857142857144" y="807.4285714285714"/>
      <point x="149.67857142857144" y="807.4285714285714" type="qcurve" smooth="yes"/>
      <point x="133.67857142857144" y="807.4285714285714"/>
      <point x="119.48214285714286" y="788.6071428571429"/>
      <point x="119.48214285714286" y="697.9642857142857" type="qcurve" smooth="yes"/>
      <point x="119.48214285714286" y="633.3214285714286"/>
      <point x="136.0" y="571.3571428571429"/>
      <point x="173.0" y="525.7142857142857" type="qcurve" smooth="yes"/>
      <point x="212.0" y="478.07142857142856"/>
      <point x="276.0" y="361.7142857142857"/>
      <point x="276.0" y="247.71428571428572" type="qcurve" smooth="yes"/>
      <point x="276.0" y="94.16071428571428"/>
      <point x="208.0" y="-10.0"/>
      <point x="146.0" y="-10.0" type="qcurve" smooth="yes"/>
      <point x="84.0" y="-10.0"/>
      <point x="18.0" y="80.55357142857142"/>
      <point x="18.0" y="172.03571428571428" type="qcurve" smooth="yes"/>
    </contour>
  </outline>
</glyph>
<glyph name="t" format="2">
  <advance width="230"/>
  <unicode hex="0074"/>
  <outline>
    <contour>
      <point x="-6.0" y="794.3928571428571" type="line"/>
      <point x="-6.0" y="914.0" type="line"/>
      <point x="225.0" y="914.0" type="line"/>
      <point x="225.0" y="794.3928571428571" type="line"/>
    </contour>
    <contour>
      <point x="47.0" y="170.78571428571428" type="qcurve" smooth="yes"/>
      <point x="47.0" y="856.1964285714286" type="line"/>
      <point x="47.0" y="867.1964285714286" type="line"/>
      <point x="47.0" y="1142.0" type="line"/>
      <point x="139.0" y="1142.0" type="line"/>
      <point x="139.0" y="192.78571428571428" type="line" smooth="yes"/>
      <point x="139.0" y="141.78571428571428"/>
      <point x="170.0" y="107.78571428571428"/>
      <point x="193.0" y="107.78571428571428" type="qcurve" smooth="yes"/>
      <point x="207.0" y="107.78571428571428"/>
      <point x="225.0" y="112.78571428571428"/>
      <point x="232.0" y="116.78571428571428" type="qcurve"/>
      <point x="234.0" y="1.0" type="line"/>
      <point x="223.0" y="-5.0"/>
      <point x="191.0" y="-9.0"/>
      <point x="167.0" y="-9.0" type="qcurve" smooth="yes"/>
      <point x="111.0" y="-9.0"/>
      <point x="47.0" y="81.85714285714286"/>
    </contour>
  </outline>
</glyph>
<glyph name="w" format="2">
  <advance width="506"/>
  <unicode hex="0077"/>
  <outline>
    <contour>
      <point x="0.0" y="914.0" type="line"/>
      <point x="91.0" y="914.0" type="line"/>
      <point x="143.0" y="344.7857142857143" type="line" smooth="yes"/>
      <point x="143.0" y="341.7857142857143"/>
      <point x="144.0" y="329.7857142857143"/>
      <point x="144.0" y="321.7857142857143" type="qcurve"/>
      <point x="145.0" y="321.7857142857143" type="line"/>
      <point x="145.0" y="329.7857142857143"/>
      <point x="146.0" y="341.7857142857143"/>
      <point x="146.0" y="344.7857142857143" type="qcurve" smooth="yes"/>
      <point x="208.0" y="914.0" type="line"/>
      <point x="293.0" y="914.0" type="line"/>
      <point x="356.0" y="345.7857142857143" type="line" smooth="yes"/>
      <point x="356.0" y="341.7857142857143"/>
      <point x="357.0" y="323.7857142857143"/>
      <point x="357.0" y="321.7857142857143" type="qcurve"/>
      <point x="358.0" y="321.7857142857143" type="line"/>
      <point x="358.0" y="323.7857142857143"/>
      <point x="359.0" y="341.7857142857143"/>
      <point x="359.0" y="345.7857142857143" type="qcurve" smooth="yes"/>
      <point x="420.0" y="914.0" type="line"/>
      <point x="506.0" y="914.0" type="line"/>
      <point x="393.0" y="0.0" type="line"/>
      <point x="315.0" y="0.0" type="line"/>
      <point x="251.0" y="606.6964285714286" type="line" smooth="yes"/>
      <point x="251.0" y="608.6964285714286"/>
      <point x="247.0" y="657.6964285714286"/>
      <point x="247.0" y="659.6964285714286" type="qcurve"/>
      <point x="247.0" y="659.6964285714286" type="line"/>
      <point x="247.0" y="657.6964285714286"/>
      <point x="242.0" y="608.6964285714286"/>
      <point x="242.0" y="606.6964285714286" type="qcurve" smooth="yes"/>
      <point x="184.0" y="0.0" type="line"/>
      <point x="106.0" y="0.0" type="line"/>
    </contour>
  </outline>
</glyph>
<glyph name="z" format="2">
  <advance width="253"/>
  <unicode hex="007A"/>
  <outline>
    <contour>
      <point x="10.0" y="0.0" type="line"/>
      <point x="10.0" y="115.53571428571428" type="line"/>
      <point x="148.0" y="788.3928571428571" type="line"/>
      <point x="19.0" y="788.3928571428571" type="line"/>
      <point x="19.0" y="914.0" type="line"/>
      <point x="243.0" y="914.0" type="line"/>
      <point x="243.0" y="797.6607142857143" type="line"/>
      <point x="105.0" y="125.60714285714286" type="line"/>
      <point x="241.0" y="125.60714285714286" type="line"/>
      <point x="241.0" y="0.0" type="line"/>
    </contour>
  </outline>
</glyph>
<glyph name="sterling" format="2">
  <advance width="1024"/>
  <unicode hex="00A3"/>
  <outline>
    <contour>
      <point x="1028.0" y="0.0" type="line"/>
      <point x="36.0" y="0.0" type="line"/>
      <point x="36.0" y="186.78571428571428" type="line"/>
      <point x="91.73214285714286" y="186.78571428571428" type="line" smooth="yes"/>
      <point x="183.73214285714286" y="186.78571428571428"/>
      <point x="262.92857142857144" y="335.7857142857143"/>
      <point x="250.0" y="467.0" type="qcurve" smooth="yes"/>
      <point x="195.0" y="1039.0" type="line" smooth="yes"/>
      <point x="177.0" y="1228.0"/>
      <point x="380.0" y="1476.0"/>
      <point x="581.0" y="1476.0" type="qcurve" smooth="yes"/>
      <point x="771.0" y="1476.0"/>
      <point x="984.0" y="1270.0"/>
      <point x="984.0" y="1103.0" type="qcurve" smooth="yes"/>
      <point x="984.0" y="1087.0" type="line"/>
      <point x="792.0" y="1087.0" type="line"/>
      <point x="792.0" y="1103.267857142857" type="line" smooth="yes"/>
      <point x="785.0" y="1196.8392857142858"/>
      <point x="674.7321428571429" y="1287.5714285714287"/>
      <point x="582.7321428571429" y="1287.5714285714287" type="qcurve" smooth="yes"/>
      <point x="483.05357142857144" y="1287.5714285714287"/>
      <point x="371.14285714285717" y="1163.5714285714287"/>
      <point x="383.0" y="1039.0" type="qcurve" smooth="yes"/>
      <point x="434.0" y="508.0" type="line" smooth="yes"/>
      <point x="445.6607142857143" y="384.85714285714283"/>
      <point x="392.0" y="233.78571428571428"/>
      <point x="322.0" y="192.78571428571428" type="qcurve"/>
      <point x="1028.0" y="192.78571428571428" type="line"/>
    </contour>
    <contour>
      <point x="824.0" y="625.0" type="line"/>
      <point x="52.0" y="625.0" type="line"/>
      <point x="52.0" y="780.0" type="line"/>
      <point x="824.0" y="780.0" type="line"/>
    </contour>
  </outline>
</glyph>
<glyph name="registered" format="2">
  <advance width="1654"/>
  <unicode hex="00AE"/>
  <outline>
    <contour>
      <point x="38.0" y="687.0" type="qcurve" smooth="yes"/>
      <point x="38.0" y="1039.0"/>
      <point x="501.0" y="1519.0"/>
      <point x="827.0" y="1519.0" type="qcurve" smooth="yes"/>
      <point x="1152.0" y="1519.0"/>
      <point x="1616.0" y="1039.0"/>
      <point x="1616.0" y="687.0" type="qcurve" smooth="yes"/>
      <point x="1616.0" y="337.0"/>
      <point x="1152.0" y="-147.0"/>
      <point x="827.0" y="-147.0" type="qcurve" smooth="yes"/>
      <point x="501.0" y="-147.0"/>
      <point x="38.0" y="337.0"/>
    </contour>
    <contour>
      <point x="186.0" y="687.0" type="qcurve" smooth="yes"/>
      <point x="186.0" y="409.375"/>
      <point x="563.0" y="29.44642857142857"/>
      <point x="828.0" y="29.44642857142857" type="qcurve" smooth="yes"/>
      <point x="1092.0" y="29.44642857142857"/>
      <point x="1469.0" y="409.375"/>
      <point x="1469.0" y="687.0" type="qcurve" smooth="yes"/>
      <point x="1469.0" y="961.6071428571429"/>
      <point x="1092.0" y="1338.607142857143"/>
      <point x="828.0" y="1338.607142857143" type="qcurve" smooth="yes"/>
      <point x="563.0" y="1338.607142857143"/>
      <point x="186.0" y="961.6071428571429"/>
    </contour>
    <contour>
      <point x="857.9464285714286" y="588.9642857142857" type="line"/>
      <point x="664.0" y="588.9642857142857" type="line"/>
      <point x="664.0" y="225.0" type="line"/>
      <point x="499.0" y="225.0" type="line"/>
      <point x="499.0" y="1158.0" type="line"/>
      <point x="821.0" y="1158.0" type="line" smooth="yes"/>
      <point x="993.0" y="1158.0"/>
      <point x="1197.0" y="1018.0"/>
      <point x="1197.0" y="877.0" type="qcurve" smooth="yes"/>
      <point x="1197.0" y="764.0"/>
      <point x="1088.0" y="629.2857142857143"/>
      <point x="984.625" y="607.2857142857143" type="qcurve"/>
      <point x="1010.5357142857143" y="586.9642857142857"/>
      <point x="1038.75" y="552.3035714285714"/>
      <point x="1056.8214285714287" y="521.6964285714286" type="qcurve" smooth="yes"/>
      <point x="1221.0" y="243.0" type="line"/>
      <point x="1221.0" y="225.0" type="line"/>
      <point x="1042.0" y="225.0" type="line"/>
    </contour>
    <contour>
      <point x="822.0" y="990.9285714285714" type="qcurve" smooth="yes"/>
      <point x="664.0" y="990.9285714285714" type="line"/>
      <point x="664.0" y="746.0357142857143" type="line"/>
      <point x="847.0" y="746.0357142857143" type="line" smooth="yes"/>
      <point x="920.0" y="746.0357142857143"/>
      <point x="1016.0" y="797.6785714285714"/>
      <point x="1016.0" y="859.0" type="qcurve" smooth="yes"/>
      <point x="1016.0" y="926.6071428571429"/>
      <point x="940.0" y="990.1964285714286"/>
    </contour>
  </outline>
</glyph>
<glyph name="degree" format="2">
  <advance width="474"/>
  <unicode hex="00B0"/>
  <outline>
    <contour>
      <point x="32.0" y="1225.0357142857142" type="qcurve"/>
      <point x="32.0" y="1320.875"/>
      <point x="154.0" y="1441.392857142857"/>
      <point x="239.0" y="1441.392857142857" type="qcurve" smooth="yes"/>
      <point x="323.0" y="1441.392857142857"/>
      <point x="442.0" y="1320.6151385927506"/>
      <point x="442.0" y="1225.0357142857142" type="qcurve" smooth="yes"/>
      <point x="442.0" y="1130.65618336887"/>
      <point x="323.0" y="1009.0"/>
      <point x="239.0" y="1009.0" type="qcurve" smooth="yes"/>
      <point x="154.0" y="1009.0"/>
      <point x="32.0" y="1130.4642857142858"/>
    </contour>
    <contour>
      <point x="121.0" y="1224.232142857143" type="qcurve"/>
      <point x="121.0" y="1174.2921108742005"/>
      <point x="189.9280383795309" y="1114.392857142857"/>
      <point x="239.0" y="1114.392857142857" type="qcurve" smooth="yes"/>
      <point x="287.0719616204691" y="1114.392857142857"/>
      <point x="353.0" y="1174.2921108742005"/>
      <point x="353.0" y="1224.232142857143" type="qcurve" smooth="yes"/>
      <point x="353.0" y="1275.2401385927506"/>
      <point x="287.0719616204691" y="1333.3214285714287"/>
      <point x="239.0" y="1333.3214285714287" type="qcurve" smooth="yes"/>
      <point x="189.9280383795309" y="1333.3214285714287"/>
      <point x="121.0" y="1275.2401385927506"/>
    </contour>
  </outline>
</glyph>
<glyph name="threesuperior" format="2">
  <advance width="313"/>
  <unicode hex="00B3"/>
  <outline>
    <contour>
      <point x="33.0" y="915.3571428571429" type="qcurve"/>
      <point x="114.0" y="915.3571428571429" type="line"/>
      <point x="114.0" y="809.0357142857143"/>
      <point x="126.0" y="739.3928571428571"/>
      <point x="156.0" y="739.3928571428571" type="qcurve" smooth="yes"/>
      <point x="191.82142857142856" y="739.3928571428571"/>
      <point x="199.0" y="811.9107142857143"/>
      <point x="199.0" y="894.8214285714286" type="qcurve" smooth="yes"/>
      <point x="199.0" y="975.5892857142857"/>
      <point x="177.14285714285717" y="1021.2321428571429"/>
      <point x="142.0" y="1020.9642857142858" type="qcurve" smooth="yes"/>
      <point x="104.0" y="1020.9642857142858" type="line"/>
      <point x="104.0" y="1116.625" type="line"/>
      <point x="142.0" y="1116.625" type="line" smooth="yes"/>
      <point x="179.08928571428572" y="1116.625"/>
      <point x="193.0" y="1164.857142857143"/>
      <point x="193.0" y="1228.0357142857142" type="qcurve" smooth="yes"/>
      <point x="193.0" y="1324.2857142857142"/>
      <point x="182.67857142857144" y="1368.9285714285713"/>
      <point x="155.0" y="1368.9285714285713" type="qcurve" smooth="yes"/>
      <point x="129.0" y="1368.9285714285713"/>
      <point x="118.0" y="1324.2857142857142"/>
      <point x="117.0" y="1211.9642857142858" type="qcurve"/>
      <point x="37.0" y="1211.9642857142858" type="line"/>
      <point x="38.0" y="1385.9285714285713"/>
      <point x="103.0" y="1466.0"/>
      <point x="155.0" y="1466.0" type="qcurve" smooth="yes"/>
      <point x="213.0" y="1466.0"/>
      <point x="279.0" y="1385.0"/>
      <point x="279.0" y="1267.0" type="qcurve" smooth="yes"/>
      <point x="279.0" y="1192.0"/>
      <point x="251.0" y="1093.0"/>
      <point x="211.0" y="1078.0" type="qcurve"/>
      <point x="243.0" y="1065.0"/>
      <point x="284.0" y="973.0"/>
      <point x="284.0" y="877.5714285714286" type="qcurve" smooth="yes"/>
      <point x="284.0" y="747.0"/>
      <point x="222.0" y="647.0"/>
      <point x="164.0" y="647.0" type="qcurve" smooth="yes"/>
      <point x="103.35714285714286" y="647.0"/>
      <point x="33.0" y="725.0535714285714"/>
    </contour>
  </outline>
</glyph>
<glyph name="cedilla" format="2">
  <advance width="500"/>
  <unicode hex="00B8"/>
  <outline>
    <contour>
      <point x="212.0" y="34.0" type="line"/>
      <point x="283.0" y="34.0" type="line"/>
      <point x="271.875" y="-20.375" type="line"/>
      <point x="324.875" y="-25.375"/>
      <point x="392.2678571428571" y="-80.25"/>
      <point x="392.0" y="-146.0" type="qcurve" smooth="yes"/>
      <point x="391.7321428571429" y="-229.0"/>
      <point x="269.0" y="-295.0"/>
      <point x="154.0" y="-295.0" type="qcurve"/>
      <point x="156.0" y="-202.26785714285717" type="line"/>
      <point x="249.0" y="-202.26785714285717"/>
      <point x="301.0" y="-182.30357142857144"/>
      <point x="301.0" y="-154.14285714285714" type="qcurve" smooth="yes"/>
      <point x="301.0" y="-129.44642857142858"/>
      <point x="244.0" y="-113.875"/>
      <point x="179.0" y="-114.94642857142856" type="qcurve"/>
    </contour>
  </outline>
</glyph>
<glyph name="onesuperior" format="2">
  <advance width="398"/>
  <unicode hex="00B9"/>
  <outline>
    <contour>
      <point x="33.0" y="1247.8392857142858" type="line"/>
      <point x="33.0" y="1357.0" type="line"/>
      <point x="207.0" y="1456.0" type="line"/>
      <point x="261.0" y="1456.0" type="line"/>
      <point x="261.0" y="666.0" type="line"/>
      <point x="174.0" y="666.0" type="line"/>
      <point x="174.0" y="1323.8392857142858" type="line"/>
    </contour>
  </outline>
</glyph>
<glyph name="ordmasculine" format="2">
  <advance width="932"/>
  <unicode hex="00BA"/>
  <guideline x="0" y="1975.0" angle="0" identifier="Jnt0R9CyOf"/>
  <outline>
    <contour>
      <point x="122.46428571428571" y="1050.232142857143" type="qcurve"/>
      <point x="122.46428571428571" y="1117.8392857142858" type="line"/>
      <point x="123.0" y="1277.7313432835822"/>
      <point x="308.3595415778252" y="1477.0"/>
      <point x="465.0" y="1477.0" type="qcurve" smooth="yes"/>
      <point x="623.2649253731344" y="1477.0"/>
      <point x="807.0" y="1277.7313432835822"/>
      <point x="806.4642857142857" y="1117.8392857142858" type="qcurve"/>
      <point x="806.4642857142857" y="1050.232142857143" type="line"/>
      <point x="806.4642857142857" y="889.2686567164179"/>
      <point x="623.9240405117271" y="691.0"/>
      <point x="467.0" y="691.0" type="qcurve" smooth="yes"/>
      <point x="308.9440298507463" y="691.0"/>
      <point x="122.46428571428571" y="889.0"/>
    </contour>
    <contour>
      <point x="286.0" y="1113.2857142857142" type="qcurve"/>
      <point x="286.0" y="1053.1785714285713" type="line"/>
      <point x="286.0" y="967.4909381663114"/>
      <point x="375.2089552238806" y="850.8928571428571"/>
      <point x="467.0" y="850.8928571428571" type="qcurve" smooth="yes"/>
      <point x="555.8059701492538" y="850.8928571428571"/>
      <point x="645.0" y="967.4909381663114"/>
      <point x="645.0" y="1053.1785714285713" type="qcurve"/>
      <point x="645.0" y="1113.2857142857142" type="line"/>
      <point x="645.0" y="1196.734541577825"/>
      <point x="555.2985074626865" y="1314.5714285714287"/>
      <point x="465.0" y="1314.5714285714287" type="qcurve" smooth="yes"/>
      <point x="374.70149253731347" y="1314.5714285714287"/>
      <point x="286.0" y="1196.734541577825"/>
    </contour>
  </outline>
</glyph>
<glyph name="germandbls" format="2">
  <advance width="1186"/>
  <unicode hex="00DF"/>
  <outline>
    <contour>
      <point x="332.0" y="1092.0" type="qcurve" name="hr00"/>
      <point x="332.0" y="0.0" type="line"/>
      <point x="148.0" y="0.0" type="line"/>
      <point x="148.0" y="1092.0" type="line" smooth="yes"/>
      <point x="148.0" y="1295.0"/>
      <point x="356.0" y="1534.0"/>
      <point x="555.0" y="1534.0" type="qcurve" smooth="yes"/>
      <point x="719.0" y="1534.0"/>
      <point x="917.0" y="1361.0"/>
      <point x="917.0" y="1215.0" type="qcurve" smooth="yes"/>
      <point x="917.0" y="1127.0"/>
      <point x="866.4642857142857" y="1016.5357142857143"/>
      <point x="830.5357142857143" y="973.2678571428571" type="qcurve" smooth="yes"/>
      <point x="799.0714285714286" y="935.0"/>
      <point x="738.1964285714286" y="859.0"/>
      <point x="738.1964285714286" y="830.0" type="qcurve" smooth="yes"/>
      <point x="738.1964285714286" y="782.0"/>
      <point x="872.0" y="681.0"/>
      <point x="953.0" y="619.0" type="qcurve" smooth="yes"/>
      <point x="1031.0" y="560.0"/>
      <point x="1138.0" y="411.0"/>
      <point x="1138.0" y="282.0" type="qcurve" smooth="yes"/>
      <point x="1138.0" y="157.0"/>
      <point x="920.0" y="-20.0"/>
      <point x="753.0" y="-20.0" type="qcurve" smooth="yes"/>
      <point x="589.0" y="-20.0"/>
      <point x="392.0" y="129.0"/>
      <point x="392.0" y="278.0" type="qcurve" smooth="yes"/>
      <point x="392.0" y="304.0" type="line"/>
      <point x="555.0" y="304.0" type="line"/>
      <point x="555.0" y="295.0" type="line" smooth="yes"/>
      <point x="555.0" y="227.07142857142856"/>
      <point x="660.0" y="155.10714285714286"/>
      <point x="755.0" y="155.10714285714286" type="qcurve" smooth="yes"/>
      <point x="864.0357142857143" y="155.10714285714286"/>
      <point x="963.0" y="234.07142857142856"/>
      <point x="963.0" y="302.0" type="qcurve" smooth="yes"/>
      <point x="963.0" y="371.0"/>
      <point x="864.0" y="466.0"/>
      <point x="807.0" y="512.0" type="qcurve" smooth="yes"/>
      <point x="735.0" y="569.0"/>
      <point x="563.2678571428571" y="706.5357142857143"/>
      <point x="563.2678571428571" y="797.5357142857143" type="qcurve" smooth="yes"/>
      <point x="563.2678571428571" y="871.5357142857143"/>
      <point x="644.6607142857143" y="981.7321428571429"/>
      <point x="678.2678571428571" y="1025.732142857143" type="qcurve" smooth="yes"/>
      <point x="708.0714285714286" y="1065.1964285714287"/>
      <point x="742.0" y="1149.0"/>
      <point x="742.0" y="1195.1607142857142" type="qcurve" smooth="yes"/>
      <point x="742.0" y="1268.892857142857"/>
      <point x="639.1607142857143" y="1356.2142857142858"/>
      <point x="551.0" y="1356.2142857142858" type="qcurve" smooth="yes"/>
      <point x="448.0" y="1356.2142857142858"/>
      <point x="332.0" y="1222.25"/>
    </contour>
  </outline>
</glyph>
<glyph name="primemod" format="2">
  <advance width="301"/>
  <unicode hex="02B9"/>
  <outline>
    <contour>
      <point x="124.0" y="1482.0" type="line"/>
      <point x="243.0" y="1482.0" type="line"/>
      <point x="154.71428571428572" y="991.0" type="line"/>
      <point x="66.64285714285714" y="996.0" type="line"/>
    </contour>
  </outline>
</glyph>
<glyph name="doubleprimemod" format="2">
  <advance width="491"/>
  <unicode hex="02BA"/>
  <outline>
    <contour>
      <point x="124.0" y="1482.0" type="line"/>
      <point x="243.0" y="1482.0" type="line"/>
      <point x="154.71428571428572" y="991.0" type="line"/>
      <point x="69.32142857142858" y="996.0" type="line"/>
    </contour>
    <contour>
      <point x="314.0" y="1482.0" type="line"/>
      <point x="433.0" y="1482.0" type="line"/>
      <point x="344.71428571428567" y="991.0" type="line"/>
      <point x="259.32142857142856" y="996.0" type="line"/>
    </contour>
  </outline>
</glyph>
<glyph name="ogonek" format="2">
  <advance width="350"/>
  <unicode hex="02DB"/>
  <outline>
    <contour>
      <point x="165.0" y="28.0" type="qcurve"/>
      <point x="215.0" y="-4.0" type="line"/>
      <point x="185.0" y="-40.732142857142854"/>
      <point x="153.0" y="-91.78571428571428"/>
      <point x="153.0" y="-101.94642857142858" type="qcurve" smooth="yes"/>
      <point x="153.0" y="-120.07142857142858"/>
      <point x="173.0" y="-144.92857142857144"/>
      <point x="204.0" y="-144.92857142857144" type="qcurve" smooth="yes"/>
      <point x="232.0" y="-144.92857142857144"/>
      <point x="276.0" y="-130.0"/>
      <point x="290.0" y="-119.26785714285714" type="qcurve"/>
      <point x="309.0" y="-199.0" type="line"/>
      <point x="293.0" y="-214.0"/>
      <point x="227.0" y="-247.0"/>
      <point x="185.0" y="-247.0" type="qcurve" smooth="yes"/>
      <point x="133.0" y="-247.0"/>
      <point x="68.0" y="-191.0"/>
      <point x="68.0" y="-138.0" type="qcurve" smooth="yes"/>
      <point x="68.0" y="-104.0"/>
      <point x="107.0" y="-24.0"/>
    </contour>
  </outline>
</glyph>
<glyph name="hookabovecomb" format="2">
  <advance width="500"/>
  <unicode hex="0309"/>
  <outline>
    <contour>
      <point x="153.0" y="958.0" type="line"/>
      <point x="152.46428571428572" y="973.3571428571429" type="line" smooth="yes"/>
      <point x="151.92857142857144" y="1006.3571428571429"/>
      <point x="180.0" y="1047.357142857143"/>
      <point x="231.0" y="1047.357142857143" type="qcurve" smooth="yes"/>
      <point x="254.0" y="1047.357142857143"/>
      <point x="270.0" y="1064.0"/>
      <point x="270.0" y="1077.9107142857142" type="qcurve" smooth="yes"/>
      <point x="270.0" y="1089.2857142857142"/>
      <point x="247.0" y="1108.607142857143"/>
      <point x="224.0" y="1108.607142857143" type="qcurve" smooth="yes"/>
      <point x="190.0" y="1108.607142857143"/>
      <point x="129.80357142857144" y="1096.4285714285713"/>
      <point x="112.0" y="1087.9642857142858" type="qcurve"/>
      <point x="80.0" y="1165.0" type="line"/>
      <point x="98.0" y="1178.0"/>
      <point x="189.0" y="1203.0"/>
      <point x="230.0" y="1203.0" type="qcurve" smooth="yes"/>
      <point x="283.0" y="1203.0"/>
      <point x="355.0" y="1148.0"/>
      <point x="355.0" y="1095.0" type="qcurve" smooth="yes"/>
      <point x="355.0" y="1039.0"/>
      <point x="284.0" y="966.6428571428571"/>
      <point x="225.0" y="966.6428571428571" type="qcurve"/>
      <point x="225.0" y="958.0" type="line"/>
    </contour>
  </outline>
</glyph>
<glyph name="horncomb" format="2">
  <advance width="500"/>
  <unicode hex="031B"/>
  <outline>
    <contour>
      <point x="100.0" y="914.0" type="line"/>
      <point x="144.0" y="919.3571428571429" type="line" smooth="yes"/>
      <point x="184.73214285714286" y="922.3035714285714"/>
      <point x="234.0" y="946.0357142857143"/>
      <point x="234.0" y="998.0357142857143" type="qcurve" smooth="yes"/>
      <point x="234.0" y="1023.2857142857142"/>
      <point x="222.26785714285714" y="1071.267857142857"/>
      <point x="201.0" y="1105.0" type="qcurve"/>
      <point x="287.0" y="1105.0" type="line"/>
      <point x="305.0" y="1072.0"/>
      <point x="330.0" y="1006.0"/>
      <point x="330.0" y="965.0" type="qcurve" smooth="yes"/>
      <point x="330.0" y="912.0"/>
      <point x="271.0" y="834.9642857142857"/>
      <point x="191.0" y="834.9642857142857" type="qcurve" smooth="yes"/>
      <point x="160.0" y="834.9642857142857"/>
      <point x="119.0" y="851.6428571428571"/>
      <point x="100.0" y="863.0" type="qcurve"/>
    </contour>
  </outline>
</glyph>
<glyph name="dotbelowcomb" format="2">
  <advance width="500"/>
  <unicode hex="0323"/>
  <outline>
    <contour>
      <point x="175.0" y="-201.0" type="qcurve" smooth="yes"/>
      <point x="175.0" y="-164.0"/>
      <point x="213.0" y="-124.0"/>
      <point x="250.0" y="-124.0" type="qcurve" smooth="yes"/>
      <point x="284.0" y="-124.0"/>
      <point x="325.0" y="-167.0"/>
      <point x="325.0" y="-201.0" type="qcurve" smooth="yes"/>
      <point x="325.0" y="-238.0"/>
      <point x="287.0" y="-278.0"/>
      <point x="250.0" y="-278.0" type="qcurve" smooth="yes"/>
      <point x="216.0" y="-278.0"/>
      <point x="175.0" y="-235.0"/>
    </contour>
  </outline>
</glyph>
<glyph name="brevebelowcomb" format="2">
  <advance width="500"/>
  <unicode hex="032E"/>
  <outline>
    <contour>
      <point x="385.16071428571433" y="-110.91071428571429" type="qcurve"/>
      <point x="456.82142857142856" y="-148.89285714285714" type="line"/>
      <point x="435.28571428571433" y="-227.89285714285714"/>
      <point x="324.0" y="-322.0"/>
      <point x="248.0" y="-322.0" type="qcurve" smooth="yes"/>
      <point x="180.0" y="-322.0"/>
      <point x="64.91071428571428" y="-233.82142857142858"/>
      <point x="37.303571428571416" y="-148.16071428571428" type="qcurve"/>
      <point x="114.76785714285717" y="-111.71428571428571" type="line"/>
      <point x="136.76785714285717" y="-156.71428571428572"/>
      <point x="209.03571428571428" y="-221.0"/>
      <point x="249.0" y="-221.0" type="qcurve" smooth="yes"/>
      <point x="288.4821428571429" y="-221.0"/>
      <point x="361.16071428571433" y="-162.78571428571428"/>
    </contour>
  </outline>
</glyph>
<glyph name="emdash" format="2">
  <advance width="1000"/>
  <unicode hex="2014"/>
  <outline>
    <contour>
      <point x="93.0" y="518.6071428571429" type="line"/>
      <point x="93.0" y="644.3928571428571" type="line"/>
      <point x="907.0" y="644.3928571428571" type="line"/>
      <point x="907.0" y="518.6071428571429" type="line"/>
    </contour>
  </outline>
</glyph>
<glyph name="quotesinglbase" format="2">
  <advance width="263"/>
  <unicode hex="201A"/>
  <outline>
    <contour>
      <point x="201.0" y="156.0" type="line"/>
      <point x="201.0" y="76.0" type="line" smooth="yes"/>
      <point x="201.0" y="15.0"/>
      <point x="147.0" y="-121.0"/>
      <point x="99.0" y="-166.0" type="qcurve"/>
      <point x="28.160714285714285" y="-110.03571428571428" type="line"/>
      <point x="56.69642857142857" y="-71.32142857142858"/>
      <point x="94.0" y="20.0"/>
      <point x="94.0" y="74.0" type="qcurve" smooth="yes"/>
      <point x="94.0" y="156.0" type="line"/>
    </contour>
  </outline>
</glyph>
<glyph name="quotedblright" format="2">
  <advance width="463"/>
  <unicode hex="201D"/>
  <outline>
    <contour>
      <point x="201.0" y="1456.0" type="line"/>
      <point x="201.0" y="1376.0" type="line" smooth="yes"/>
      <point x="201.0" y="1315.0"/>
      <point x="147.0" y="1179.0"/>
      <point x="99.0" y="1134.0" type="qcurve"/>
      <point x="28.69642857142857" y="1190.232142857143" type="line"/>
      <point x="58.30357142857143" y="1231.357142857143"/>
      <point x="94.0" y="1320.0"/>
      <point x="94.0" y="1374.0" type="qcurve" smooth="yes"/>
      <point x="94.0" y="1456.0" type="line"/>
    </contour>
    <contour>
      <point x="401.0" y="1456.0" type="line"/>
      <point x="401.0" y="1376.0" type="line" smooth="yes"/>
      <point x="401.0" y="1315.0"/>
      <point x="347.0" y="1179.0"/>
      <point x="299.0" y="1134.0" type="qcurve"/>
      <point x="228.96428571428572" y="1190.232142857143" type="line"/>
      <point x="257.5" y="1230.017857142857"/>
      <point x="294.0" y="1320.0"/>
      <point x="294.0" y="1374.0" type="qcurve" smooth="yes"/>
      <point x="294.0" y="1456.0" type="line"/>
    </contour>
  </outline>
</glyph>
<glyph name="minute" format="2">
  <advance width="335"/>
  <unicode hex="2032"/>
  <outline>
    <contour>
      <point x="53.69642857142857" y="1034.0892857142858" type="line"/>
      <point x="215.0" y="1489.0" type="line"/>
      <point x="308.0" y="1443.0" type="line"/>
      <point x="126.5" y="989.25" type="line"/>
    </contour>
  </outline>
</glyph>
<glyph name="lira" format="2">
  <advance width="1024"/>
  <unicode hex="20A4"/>
  <outline>
    <contour>
      <point x="1028.0" y="0.0" type="line"/>
      <point x="36.0" y="0.0" type="line"/>
      <point x="36.0" y="186.51785714285714" type="line"/>
      <point x="92.0" y="186.51785714285714" type="line" smooth="yes"/>
      <point x="182.66071428571428" y="186.51785714285714"/>
      <point x="267.0" y="324.0"/>
      <point x="253.0" y="467.0" type="qcurve" smooth="yes"/>
      <point x="198.0" y="1039.0" type="line" smooth="yes"/>
      <point x="180.0" y="1228.0"/>
      <point x="380.0" y="1476.0"/>
      <point x="581.0" y="1476.0" type="qcurve" smooth="yes"/>
      <point x="771.0" y="1476.0"/>
      <point x="984.0" y="1270.0"/>
      <point x="984.0" y="1103.0" type="qcurve" smooth="yes"/>
      <point x="984.0" y="1087.0" type="line"/>
      <point x="792.0" y="1087.0" type="line"/>
      <point x="792.0" y="1103.0" type="line" smooth="yes"/>
      <point x="786.875" y="1197.642857142857"/>
      <point x="675.0" y="1292.2142857142858"/>
      <point x="583.0" y="1292.2142857142858" type="qcurve" smooth="yes"/>
      <point x="481.0" y="1292.2142857142858"/>
      <point x="369.60714285714283" y="1145.9285714285713"/>
      <point x="380.0" y="1039.0" type="qcurve" smooth="yes"/>
      <point x="431.0" y="508.0" type="line" smooth="yes"/>
      <point x="444.0" y="372.0"/>
      <point x="400.8392857142857" y="233.78571428571428"/>
      <point x="344.23214285714283" y="192.78571428571428" type="qcurve"/>
      <point x="1028.0" y="192.78571428571428" type="line"/>
    </contour>
    <contour>
      <point x="804.0" y="418.92857142857144" type="line"/>
      <point x="42.0" y="418.92857142857144" type="line"/>
      <point x="42.0" y="590.7142857142857" type="line"/>
      <point x="804.0" y="590.7142857142857" type="line"/>
    </contour>
    <contour>
      <point x="804.0" y="748.9285714285714" type="line"/>
      <point x="42.0" y="748.9285714285714" type="line"/>
      <point x="42.0" y="920.7142857142857" type="line"/>
      <point x="804.0" y="920.7142857142857" type="line"/>
    </contour>
  </outline>
</glyph>
<glyph name="peseta" format="2">
  <advance width="1681"/>
  <unicode hex="20A7"/>
  <outline>
    <contour>
      <point x="545.0" y="551.6071428571429" type="qcurve"/>
      <point x="311.0" y="551.6071428571429" type="line"/>
      <point x="311.0" y="730.3928571428571" type="line"/>
      <point x="545.0" y="730.3928571428571" type="line"/>
      <point x="711.669776119403" y="730.3928571428571"/>
      <point x="822.0" y="894.3864605543711"/>
      <point x="822.0" y="1000.9642857142857" type="qcurve"/>
      <point x="822.0" y="1112.9205756929637"/>
      <point x="718.0983475479744" y="1277.2142857142858"/>
      <point x="545.0" y="1277.2142857142858" type="qcurve"/>
      <point x="352.0" y="1277.2142857142858" type="line"/>
      <point x="352.0" y="0.0" type="line"/>
      <point x="167.0" y="0.0" type="line"/>
      <point x="167.0" y="1456.0" type="line"/>
      <point x="545.0" y="1456.0" type="line"/>
      <point x="791.2686567164179" y="1456.0"/>
      <point x="1008.0" y="1202.044776119403"/>
      <point x="1008.0" y="1011.0" type="qcurve"/>
      <point x="1008.0" y="819.2089552238806"/>
      <point x="791.1966950959488" y="551.6071428571429"/>
    </contour>
    <contour>
      <point x="1554.0" y="1026.0" type="line"/>
      <point x="1554.0" y="857.2142857142857" type="line"/>
      <point x="950.0" y="857.2142857142857" type="line"/>
      <point x="950.0" y="1026.0" type="line"/>
    </contour>
    <contour>
      <point x="1147.0" y="1345.0" type="line"/>
      <point x="1332.0" y="1345.0" type="line"/>
      <point x="1332.0" y="294.7857142857143" type="line"/>
      <point x="1332.0" y="211.9059168443497"/>
      <point x="1404.8033049040512" y="165.78571428571428"/>
      <point x="1451.0" y="165.78571428571428" type="qcurve" smooth="yes"/>
      <point x="1474.0983475479743" y="165.78571428571428"/>
      <point x="1544.0" y="167.78571428571428"/>
      <point x="1603.0" y="189.78571428571428" type="qcurve"/>
      <point x="1603.0" y="12.0" type="line"/>
      <point x="1554.0" y="-6.0"/>
      <point x="1445.5074626865671" y="-20.0"/>
      <point x="1397.0" y="-20.0" type="qcurve" smooth="yes"/>
      <point x="1294.7611940298507" y="-20.0"/>
      <point x="1147.0" y="107.05970149253733"/>
      <point x="1147.0" y="269.0" type="qcurve"/>
    </contour>
  </outline>
</glyph>
<glyph name="approxequal" format="2">
  <advance width="1024"/>
  <unicode hex="2248"/>
  <outline>
    <contour>
      <point x="46.0" y="690.6071428571429" type="qcurve"/>
      <point x="46.0" y="914.3928571428571" type="line"/>
      <point x="93.0" y="965.3928571428571"/>
      <point x="225.0" y="1023.3928571428571"/>
      <point x="290.0" y="1024.392857142857" type="qcurve" smooth="yes"/>
      <point x="369.0" y="1025.392857142857"/>
      <point x="461.0" y="982.3928571428571"/>
      <point x="524.0" y="951.3928571428571" type="qcurve" smooth="yes"/>
      <point x="583.0" y="921.3928571428571"/>
      <point x="668.0" y="881.3928571428571"/>
      <point x="742.0" y="881.3928571428571" type="qcurve" smooth="yes"/>
      <point x="807.0" y="881.3928571428571"/>
      <point x="932.0" y="949.3928571428571"/>
      <point x="979.0" y="1009.3928571428571" type="qcurve"/>
      <point x="979.0" y="785.6071428571429" type="line"/>
      <point x="932.0" y="734.6071428571429"/>
      <point x="808.0" y="676.6071428571429"/>
      <point x="743.0" y="676.6071428571429" type="qcurve" smooth="yes"/>
      <point x="669.0" y="676.6071428571429"/>
      <point x="584.0" y="715.6071428571429"/>
      <point x="525.0" y="745.6071428571429" type="qcurve" smooth="yes"/>
      <point x="462.0" y="776.6071428571429"/>
      <point x="369.0" y="818.6071428571429"/>
      <point x="290.0" y="818.6071428571429" type="qcurve" smooth="yes"/>
      <point x="225.0" y="818.6071428571429"/>
      <point x="93.0" y="750.6071428571429"/>
    </contour>
    <contour>
      <point x="45.0" y="273.60714285714283" type="qcurve"/>
      <point x="45.0" y="497.39285714285717" type="line"/>
      <point x="92.0" y="548.3928571428571"/>
      <point x="224.0" y="605.3928571428571"/>
      <point x="289.0" y="606.3928571428571" type="qcurve" smooth="yes"/>
      <point x="368.0" y="607.3928571428571"/>
      <point x="460.0" y="564.3928571428571"/>
      <point x="523.0" y="533.3928571428571" type="qcurve" smooth="yes"/>
      <point x="582.0" y="503.39285714285717"/>
      <point x="667.0" y="464.39285714285717"/>
      <point x="741.0" y="464.39285714285717" type="qcurve" smooth="yes"/>
      <point x="806.0" y="464.39285714285717"/>
      <point x="931.0" y="532.3928571428571"/>
      <point x="978.0" y="592.3928571428571" type="qcurve"/>
      <point x="978.0" y="367.60714285714283" type="line"/>
      <point x="931.0" y="316.60714285714283"/>
      <point x="807.0" y="258.60714285714283"/>
      <point x="742.0" y="258.60714285714283" type="qcurve" smooth="yes"/>
      <point x="668.0" y="258.60714285714283"/>
      <point x="583.0" y="297.60714285714283"/>
      <point x="524.0" y="327.60714285714283" type="qcurve" smooth="yes"/>
      <point x="461.0" y="358.60714285714283"/>
      <point x="368.0" y="400.60714285714283"/>
      <point x="289.0" y="400.60714285714283" type="qcurve" smooth="yes"/>
      <point x="224.0" y="400.60714285714283"/>
      <point x="92.0" y="333.60714285714283"/>
    </contour>
  </outline>
</glyph>
<glyph name="lessequal" format="2">
  <advance width="1024"/>
  <unicode hex="2264"/>
  <outline>
    <contour>
      <point x="913.0" y="253.0" type="line"/>
      <point x="95.0" y="602.0" type="line"/>
      <point x="95.0" y="746.0" type="line"/>
      <point x="913.0" y="1095.0" type="line"/>
      <point x="913.0" y="885.9285714285714" type="line"/>
      <point x="345.2857142857143" y="670.1607142857143" type="line"/>
      <point x="913.0" y="456.0" type="line"/>
    </contour>
    <contour>
      <point x="52.0" y="-9.714285714285714" type="line"/>
      <point x="52.0" y="186.07142857142856" type="line"/>
      <point x="962.0" y="186.07142857142856" type="line"/>
      <point x="962.0" y="-9.714285714285714" type="line"/>
    </contour>
  </outline>
</glyph>
<glyph name="leftanglebracket" format="2">
  <advance width="700"/>
  <unicode hex="27E8"/>
  <outline>
    <contour>
      <point x="-16.0" y="536.0" type="line"/>
      <point x="-16.0" y="665.0" type="line"/>
      <point x="576.8928571428571" y="1504.357142857143" type="line"/>
      <point x="700.875" y="1411.9285714285713" type="line"/>
      <point x="175.0" y="604.0" type="line"/>
      <point x="700.9464285714286" y="-216.85714285714286" type="line"/>
      <point x="577.4285714285714" y="-308.82142857142856" type="line"/>
    </contour>
  </outline>
</glyph>
<glyph name="rightanglebracket" format="2">
  <advance width="700"/>
  <unicode hex="27E9"/>
  <outline>
    <contour>
      <point x="-14.660714285714286" y="-216.125" type="line"/>
      <point x="508.0" y="591.0" type="line"/>
      <point x="-14.464285714285714" y="1411.5892857142858" type="line"/>
      <point x="111.19642857142857" y="1504.892857142857" type="line"/>
      <point x="699.0" y="659.0" type="line"/>
      <point x="699.0" y="530.0" type="line"/>
      <point x="108.78571428571428" y="-309.625" type="line"/>
    </contour>
  </outline>
</glyph>
<glyph name="acutecombstack.case" format="2">
  <advance width="500"/>
  <outline>
    <contour>
      <point x="141.0" y="1551.0" type="line"/>
      <point x="289.0" y="1683.0" type="line"/>
      <point x="363.0" y="1591.0" type="line"/>
      <point x="202.0" y="1490.0" type="line"/>
    </contour>
  </outline>
</glyph>
<glyph name="diagonalbarL" format="2">
  <advance width="355"/>
  <outline>
    <contour>
      <point x="64.30357142857143" y="482.125" type="line"/>
      <point x="-7.767857142857139" y="597.9285714285714" type="line"/>
      <point x="264.2321428571429" y="786.9285714285714" type="line"/>
      <point x="337.30357142857144" y="674.125" type="line"/>
    </contour>
  </outline>
</glyph>
<glyph name="diagonalbarl" format="2">
  <advance width="410"/>
  <outline>
    <contour>
      <point x="64.32142857142858" y="509.125" type="line"/>
      <point x="-6.696428571428569" y="623.1071428571429" type="line"/>
      <point x="104.30357142857144" y="702.1071428571429" type="line"/>
      <point x="336.30357142857144" y="880.1071428571429" type="line"/>
      <point x="412.32142857142856" y="754.125" type="line"/>
      <point x="181.32142857142856" y="600.125" type="line"/>
    </contour>
  </outline>
</glyph>
<glyph name="dieresiscomb.case" format="2">
  <advance width="500"/>
  <outline>
    <contour>
      <point x="65.0" y="1561.0" type="qcurve" smooth="yes"/>
      <point x="65.0" y="1593.0"/>
      <point x="103.0" y="1636.0"/>
      <point x="139.0" y="1636.0" type="qcurve" smooth="yes"/>
      <point x="176.0" y="1636.0"/>
      <point x="214.0" y="1593.0"/>
      <point x="214.0" y="1561.0" type="qcurve" smooth="yes"/>
      <point x="214.0" y="1531.0"/>
      <point x="176.0" y="1489.0"/>
      <point x="139.0" y="1489.0" type="qcurve" smooth="yes"/>
      <point x="103.0" y="1489.0"/>
      <point x="65.0" y="1531.0"/>
    </contour>
    <contour>
      <point x="286.0" y="1559.0" type="qcurve" smooth="yes"/>
      <point x="286.0" y="1591.0"/>
      <point x="323.0" y="1634.0"/>
      <point x="360.0" y="1634.0" type="qcurve" smooth="yes"/>
      <point x="397.0" y="1634.0"/>
      <point x="435.0" y="1591.0"/>
      <point x="435.0" y="1559.0" type="qcurve" smooth="yes"/>
      <point x="435.0" y="1529.0"/>
      <point x="397.0" y="1487.0"/>
      <point x="360.0" y="1487.0" type="qcurve" smooth="yes"/>
      <point x="323.0" y="1487.0"/>
      <point x="286.0" y="1529.0"/>
    </contour>
  </outline>
</glyph>
<glyph name="hookabovecombstack.case" format="2">
  <advance width="500"/>
  <outline>
    <contour>
      <point x="180.0" y="1471.0" type="line"/>
      <point x="180.0" y="1492.0" type="line" smooth="yes"/>
      <point x="180.0" y="1520.0"/>
      <point x="212.0" y="1558.5357142857142"/>
      <point x="254.0" y="1564.0" type="qcurve" smooth="yes"/>
      <point x="287.875" y="1569.0"/>
      <point x="308.0" y="1580.0"/>
      <point x="308.0" y="1598.0" type="qcurve" smooth="yes"/>
      <point x="308.0" y="1617.3392857142858"/>
      <point x="280.0" y="1628.0"/>
      <point x="254.0" y="1628.0" type="qcurve" smooth="yes"/>
      <point x="220.0" y="1628.0"/>
      <point x="167.0" y="1613.0"/>
      <point x="156.0" y="1607.0" type="qcurve"/>
      <point x="126.0" y="1675.0" type="line"/>
      <point x="144.0" y="1683.0"/>
      <point x="217.0" y="1706.0"/>
      <point x="262.0" y="1706.0" type="qcurve" smooth="yes"/>
      <point x="326.0" y="1706.0"/>
      <point x="399.0" y="1658.0"/>
      <point x="399.0" y="1609.0" type="qcurve" smooth="yes"/>
      <point x="399.0" y="1560.0"/>
      <point x="328.0" y="1494.0"/>
      <point x="248.0" y="1487.0" type="qcurve"/>
      <point x="248.0" y="1471.0" type="line"/>
    </contour>
  </outline>
</glyph>
<glyph name="horizontalbarH" format="2">
  <advance width="386"/>
  <outline>
    <contour>
      <point x="381.0" y="1031.607142857143" type="line"/>
      <point x="286.0" y="1031.607142857143" type="line"/>
      <point x="286.0" y="1165.392857142857" type="line"/>
      <point x="381.0" y="1165.392857142857" type="line"/>
    </contour>
    <contour>
      <point x="5.0" y="1031.607142857143" type="line"/>
      <point x="5.0" y="1165.392857142857" type="line"/>
      <point x="102.0" y="1165.392857142857" type="line"/>
      <point x="102.0" y="1031.607142857143" type="line"/>
    </contour>
    <contour>
      <point x="102.0" y="1041.607142857143" type="line"/>
      <point x="102.0" y="1155.392857142857" type="line"/>
      <point x="286.0" y="1155.392857142857" type="line"/>
      <point x="286.0" y="1041.607142857143" type="line"/>
    </contour>
  </outline>
</glyph>
<glyph name="idotless" format="2">
  <advance width="189"/>
  <outline>
    <contour>
      <point x="48.0" y="0.0" type="line"/>
      <point x="48.0" y="914.0" type="line"/>
      <point x="140.0" y="914.0" type="line"/>
      <point x="140.0" y="0.0" type="line"/>
    </contour>
  </outline>
</glyph>
<glyph name="zerosuperior" format="2">
  <advance width="313"/>
  <outline>
    <contour>
      <point x="36.0" y="791.0" type="qcurve" smooth="yes"/>
      <point x="36.0" y="1320.0" type="line" smooth="yes"/>
      <point x="36.0" y="1392.0"/>
      <point x="106.0" y="1466.0"/>
      <point x="156.0" y="1466.0" type="qcurve" smooth="yes"/>
      <point x="206.0" y="1466.0"/>
      <point x="277.0" y="1392.0"/>
      <point x="277.0" y="1320.0" type="qcurve" smooth="yes"/>
      <point x="277.0" y="791.0" type="line" smooth="yes"/>
      <point x="277.0" y="718.0"/>
      <point x="205.0" y="643.0"/>
      <point x="156.0" y="643.0" type="qcurve" smooth="yes"/>
      <point x="107.0" y="643.0"/>
      <point x="36.0" y="718.0"/>
    </contour>
    <contour>
      <point x="122.0" y="797.3571428571429" type="line" smooth="yes"/>
      <point x="122.0" y="769.4107142857143"/>
      <point x="138.73214285714286" y="746.0892857142857"/>
      <point x="154.73214285714283" y="746.0892857142857" type="qcurve" smooth="yes"/>
      <point x="170.73214285714283" y="746.0892857142857"/>
      <point x="191.0" y="767.0"/>
      <point x="191.0" y="797.3571428571429" type="qcurve" smooth="yes"/>
      <point x="191.0" y="1310.3214285714287" type="line" smooth="yes"/>
      <point x="191.0" y="1342.8035714285713"/>
      <point x="167.51785714285717" y="1362.9107142857142"/>
      <point x="155.0" y="1362.9107142857142" type="qcurve" smooth="yes"/>
      <point x="144.55357142857142" y="1362.9107142857142"/>
      <point x="122.0" y="1342.0"/>
      <point x="122.0" y="1310.3214285714287" type="qcurve" smooth="yes"/>
    </contour>
  </outline>
</glyph>
